<svg width="874" height="256" viewBox="0 0 874 256" fill="none" xmlns="http://www.w3.org/2000/svg">
<path d="M217 224H169L41 32H89L217 224Z" fill="white"/>
<path d="M183 155L141 92V50H183V155Z" fill="white"/>
<circle cx="64.5" cy="199.5" r="24.5" fill="#FF9500"/>
<path fill-rule="evenodd" clip-rule="evenodd" d="M234.008 70.4304C256.966 57.1756 286.322 65.0418 299.577 87.9998C300.94 90.3603 302.079 92.7891 303.002 95.2605L235.169 134.424C245.146 144.6 261.095 147.168 274.008 139.713C279.057 136.797 283.011 132.713 285.725 128H303.263C299.587 138.412 292.321 147.615 282.008 153.569C259.05 166.824 229.693 158.958 216.439 136C203.184 113.042 211.05 83.6852 234.008 70.4304ZM280.847 89.5759C270.87 79.3997 254.921 76.8316 242.008 84.2869C229.095 91.7422 223.345 106.838 227.169 120.567L280.847 89.5759Z" fill="white"/>
<path fill-rule="evenodd" clip-rule="evenodd" d="M345.008 70.4387C367.966 57.1839 397.322 65.0501 410.577 88.0081C411.94 90.3686 413.079 92.7974 414.002 95.2688L346.169 134.432C356.146 144.608 372.095 147.176 385.008 139.721C390.057 136.806 394.011 132.722 396.725 128.008H414.263C410.587 138.421 403.321 147.623 393.008 153.577C370.05 166.832 340.693 158.966 327.439 136.008C314.184 113.05 322.05 83.6935 345.008 70.4387ZM391.847 89.5842C381.87 79.408 365.921 76.8399 353.008 84.2952C340.095 91.7505 334.345 106.847 338.169 120.575L391.847 89.5842Z" fill="white"/>
<path fill-rule="evenodd" clip-rule="evenodd" d="M558 64C584.51 64 606 85.4903 606 112C606 138.51 584.51 160 558 160C545.705 160 534.492 155.375 526 147.773V192H510V112C510 85.4903 531.49 64 558 64ZM558 80C540.327 80 526 94.3269 526 112C526 129.673 540.327 144 558 144C575.673 144 590 129.673 590 112C590 94.3269 575.673 80 558 80Z" fill="#FF9500"/>
<path fill-rule="evenodd" clip-rule="evenodd" d="M834.001 160H818.001V147.772C809.509 155.375 798.296 160 786.001 160C759.491 160 738 138.51 738 112C738 85.4903 759.491 64 786.001 64C798.296 64.0001 809.509 68.6248 818.001 76.2266V32H834.001V160ZM786.001 80C768.328 80 754.001 94.3269 754.001 112C754.001 129.673 768.328 144 786.001 144C803.674 144 818.001 129.673 818.001 112C818.001 94.327 803.674 80.0003 786.001 80Z" fill="white"/>
<path fill-rule="evenodd" clip-rule="evenodd" d="M672 64C698.51 64 720 85.4903 720 112V160H704V147.773C695.508 155.375 684.295 160 672 160C645.49 160 624 138.51 624 112C624 85.4903 645.49 64 672 64ZM672 80C654.327 80 640 94.3269 640 112C640 129.673 654.327 144 672 144C689.673 144 704 129.673 704 112C704 94.3269 689.673 80 672 80Z" fill="#FF9500"/>
<path d="M458 64H474V80H458V112C458 129.673 472.327 144 490 144V160C463.49 160 442 138.51 442 112V80H426V64H442V32H458V64Z" fill="white"/>
</svg>
