<svg width="887" height="256" viewBox="0 0 887 256" fill="none" xmlns="http://www.w3.org/2000/svg">
<path d="M217 224H169L41 32H89L217 224Z" fill="white"/>
<path d="M183 155L141 92V50H183V155Z" fill="white"/>
<circle cx="64.5" cy="199.5" r="24.5" fill="#FF9500"/>
<path fill-rule="evenodd" clip-rule="evenodd" d="M259 64C280.338 64 298.419 77.9247 304.664 97.1816L296.021 102.171L296.022 102.172L241.351 133.736C246.167 137.652 252.309 140 259 140C268.514 140 276.917 135.253 281.977 128H304.268C297.678 146.643 279.899 160 259 160C232.49 160 211 138.51 211 112C211 85.4903 232.49 64 259 64ZM259 84C243.536 84 231 96.536 231 112C231 113.503 231.12 114.978 231.348 116.417L276.648 90.2627C271.833 86.3473 265.691 84 259 84Z" fill="white"/>
<path fill-rule="evenodd" clip-rule="evenodd" d="M367 64C388.338 64 406.419 77.9247 412.664 97.1816L404.021 102.171L404.022 102.172L349.351 133.736C354.167 137.652 360.309 140 367 140C376.514 140 384.917 135.253 389.977 128H412.268C405.678 146.643 387.899 160 367 160C340.49 160 319 138.51 319 112C319 85.4903 340.49 64 367 64ZM367 84C351.536 84 339 96.536 339 112C339 113.503 339.12 114.978 339.348 116.417L384.648 90.2627C379.833 86.3473 373.691 84 367 84Z" fill="white"/>
<path fill-rule="evenodd" clip-rule="evenodd" d="M847 160H827V150.988C819.119 156.658 809.45 160 799 160C772.49 160 751 138.51 751 112C751 85.4903 772.49 64 799 64C809.45 64 819.119 67.3409 827 73.0107V32H847V160ZM799 84C783.536 84 771 96.536 771 112C771 127.464 783.536 140 799 140C814.464 140 827 127.464 827 112C827 96.536 814.464 84 799 84Z" fill="white"/>
<path fill-rule="evenodd" clip-rule="evenodd" d="M583 64C609.51 64 631 85.4903 631 112C631 138.51 609.51 160 583 160C572.55 160 562.881 156.658 555 150.988V192H535V112C535 85.4903 556.49 64 583 64ZM583 84C567.536 84 555 96.536 555 112C555 127.464 567.536 140 583 140C598.464 140 611 127.464 611 112C611 96.536 598.464 84 583 84Z" fill="#FF9500"/>
<path fill-rule="evenodd" clip-rule="evenodd" d="M691 64C717.51 64 739 85.4903 739 112V160H719V150.988C711.119 156.658 701.45 160 691 160C664.49 160 643 138.51 643 112C643 85.4903 664.49 64 691 64ZM691 84C675.536 84 663 96.536 663 112C663 127.464 675.536 140 691 140C706.464 140 719 127.464 719 112C719 96.536 706.464 84 691 84Z" fill="#FF9500"/>
<path d="M475 64H503V84H475V112C475 127.464 487.536 140 503 140H513V160H503C476.49 160 455 138.51 455 112V84H427V64H455V32H475V64Z" fill="white"/>
</svg>
