<svg width="887" height="256" viewBox="0 0 887 256" fill="none" xmlns="http://www.w3.org/2000/svg">
<path fill-rule="evenodd" clip-rule="evenodd" d="M261.623 62.8008C282.793 62.8008 300.732 77.0736 306.928 96.812L298.353 101.926L298.354 101.927L244.112 134.281C248.891 138.294 254.984 140.701 261.623 140.701C271.062 140.701 279.399 135.835 284.419 128.401H306.534C299.997 147.51 282.358 161.201 261.623 161.201C235.321 161.201 214 139.173 214 112.001C214 84.8284 235.321 62.8008 261.623 62.8008ZM261.623 83.3008C246.28 83.3008 233.843 96.1502 233.843 112.001C233.843 113.541 233.961 115.053 234.188 116.528L279.132 89.72C274.354 85.7068 268.261 83.3008 261.623 83.3008Z" fill="#31363F"/>
<path fill-rule="evenodd" clip-rule="evenodd" d="M368.773 62.8008C389.943 62.8008 407.883 77.0736 414.078 96.812L405.503 101.926L405.504 101.927L351.262 134.281C356.041 138.294 362.135 140.701 368.773 140.701C378.212 140.701 386.549 135.835 391.569 128.401H413.685C407.147 147.51 389.508 161.201 368.773 161.201C342.472 161.201 321.15 139.173 321.15 112.001C321.15 84.8284 342.472 62.8008 368.773 62.8008ZM368.773 83.3008C353.431 83.3008 340.993 96.1502 340.993 112.001C340.993 113.541 341.112 115.053 341.338 116.528L386.283 89.72C381.505 85.7068 375.411 83.3008 368.773 83.3008Z" fill="#31363F"/>
<path fill-rule="evenodd" clip-rule="evenodd" d="M844.999 161.2H825.156V151.963C817.337 157.775 807.745 161.2 797.377 161.2C771.075 161.2 749.754 139.172 749.754 112C749.754 84.8276 771.075 62.8 797.377 62.8C807.744 62.8 817.337 66.2245 825.156 72.036V30H844.999V161.2ZM797.377 83.3C782.034 83.3 769.597 96.1494 769.597 112C769.597 127.851 782.034 140.7 797.377 140.7C812.719 140.7 825.156 127.851 825.156 112C825.156 96.1494 812.719 83.3 797.377 83.3Z" fill="#31363F"/>
<path fill-rule="evenodd" clip-rule="evenodd" d="M583.077 62.8008C609.378 62.8008 630.699 84.8284 630.699 112.001C630.699 139.173 609.378 161.201 583.077 161.201C572.709 161.201 563.116 157.776 555.297 151.964V194.001H535.454V112.001C535.454 84.8284 556.775 62.8008 583.077 62.8008ZM583.077 83.3008C567.734 83.3008 555.297 96.1502 555.297 112.001C555.297 127.851 567.734 140.701 583.077 140.701C598.419 140.701 610.857 127.851 610.857 112.001C610.857 96.1502 598.419 83.3008 583.077 83.3008Z" fill="#006AFF"/>
<path fill-rule="evenodd" clip-rule="evenodd" d="M690.227 62.8008C716.528 62.8008 737.85 84.8284 737.85 112.001V161.201H718.007V151.964C710.188 157.776 700.595 161.201 690.227 161.201C663.926 161.201 642.604 139.173 642.604 112.001C642.604 84.8284 663.926 62.8008 690.227 62.8008ZM690.227 83.3008C674.885 83.3008 662.447 96.1502 662.447 112.001C662.447 127.851 674.885 140.701 690.227 140.701C705.57 140.701 718.007 127.851 718.007 112.001C718.007 96.1502 705.57 83.3008 690.227 83.3008Z" fill="#006AFF"/>
<circle cx="67.7677" cy="199.969" r="25.4059" fill="#006AFF"/>
<path d="M218 226H166.464L42 30H93.5359L218 226Z" fill="#31363F"/>
<path d="M184.939 162.708L142.155 95.3333V46.3333H184.939V162.708Z" fill="#31363F"/>
<path d="M475.924 62.7998H504V83.2998H475.924V112C475.924 127.851 488.361 140.7 503.703 140.7H513.625V161.2H503.703C477.402 161.2 456.081 139.172 456.081 112V83.2998H428.301V62.7998H456.081V30H475.924V62.7998Z" fill="#31363F"/>
</svg>
