<svg width="64" height="64" viewBox="0 0 64 64" fill="none" xmlns="http://www.w3.org/2000/svg">
<path d="M54 8C55.1046 8 56 8.89543 56 10V54C56 55.1046 55.1046 56 54 56H10C8.89543 56 8 55.1046 8 54V10C8 8.89543 8.89543 8 10 8H54ZM31 11C30.4477 11 30 11.4477 30 12V30H12C11.4477 30 11 30.4477 11 31V33C11 33.5523 11.4477 34 12 34H30V52C30 52.5523 30.4477 53 31 53H33C33.5523 53 34 52.5523 34 52V34H52C52.5523 34 53 33.5523 53 33V31C53 30.4477 52.5523 30 52 30H34V12C34 11.4477 33.5523 11 33 11H31ZM43 47C42.4477 47 42 47.4477 42 48V50C42 50.5523 42.4477 51 43 51H45C45.5523 51 46 50.5523 46 50V48C46 47.4477 45.5523 47 45 47H43ZM24.9502 37.6357C24.5598 37.2454 23.9267 37.2456 23.5361 37.6357L20 41.1709L16.4648 37.6357C16.0744 37.2454 15.4413 37.2455 15.0508 37.6357L13.6367 39.0498C13.2462 39.4403 13.2462 40.0743 13.6367 40.4648L17.1719 44L13.6367 47.5352C13.2462 47.9257 13.2462 48.5597 13.6367 48.9502L15.0508 50.3643C15.4413 50.7545 16.0744 50.7546 16.4648 50.3643L20 46.8281L23.5361 50.3643C23.9267 50.7544 24.5598 50.7546 24.9502 50.3643L26.3643 48.9502C26.7548 48.5597 26.7548 47.9257 26.3643 47.5352L22.8291 44L26.3643 40.4648C26.7548 40.0743 26.7548 39.4403 26.3643 39.0498L24.9502 37.6357ZM38 42C37.4477 42 37 42.4477 37 43V45C37 45.5523 37.4477 46 38 46H50C50.5523 46 51 45.5523 51 45V43C51 42.4477 50.5523 42 50 42H38ZM43 37C42.4477 37 42 37.4477 42 38V40C42 40.5523 42.4477 41 43 41H45C45.5523 41 46 40.5523 46 40V38C46 37.4477 45.5523 37 45 37H43ZM19 13C18.4477 13 18 13.4477 18 14V18H14C13.4477 18 13 18.4477 13 19V21C13 21.5523 13.4477 22 14 22H18V26C18 26.5523 18.4477 27 19 27H21C21.5523 27 22 26.5523 22 26V22H26C26.5523 22 27 21.5523 27 21V19C27 18.4477 26.5523 18 26 18H22V14C22 13.4477 21.5523 13 21 13H19ZM38 18C37.4477 18 37 18.4477 37 19V21C37 21.5523 37.4477 22 38 22H50C50.5523 22 51 21.5523 51 21V19C51 18.4477 50.5523 18 50 18H38Z" fill="white"/>
</svg>
