<svg width="64" height="64" viewBox="0 0 64 64" fill="none" xmlns="http://www.w3.org/2000/svg">
<path d="M49.7349 55.4121C48.9511 56.196 47.6802 56.196 46.8963 55.4121L32 40.5158L17.1037 55.4121C16.3198 56.196 15.0489 56.196 14.2651 55.4121L8.58789 49.735C7.80404 48.9511 7.80404 47.6802 8.58789 46.8964L23.4842 32L8.58788 17.1036C7.80404 16.3198 7.80404 15.0489 8.58789 14.265L14.2651 8.58788C15.0489 7.80404 16.3198 7.80404 17.1037 8.58789L32 23.4843L46.8963 8.58792C47.6802 7.80407 48.9511 7.80407 49.7349 8.58791L55.4121 14.2651C56.196 15.0489 56.196 16.3198 55.4121 17.1037L40.5158 32L55.4121 46.8964C56.196 47.6802 56.196 48.9511 55.4121 49.735L49.7349 55.4121Z" fill="white"/>
</svg>
