<svg width="64" height="64" viewBox="0 0 64 64" fill="none" xmlns="http://www.w3.org/2000/svg">
<path d="M28.968 8.16147C29.6766 7.85612 30.4973 7.99071 31.0662 8.507L55.372 30.5871C55.7728 30.9507 56 31.4623 56 32C56 32.5378 55.7728 33.0494 55.372 33.413L31.0662 55.493C30.7007 55.8252 30.228 56 29.7499 56C29.4861 56 29.2202 55.9471 28.968 55.8387C28.2627 55.5327 28 54.9235 28 54.1615V40H10C8.92638 40 8 39.0594 8 38V26C8 24.9399 8.92712 24 10 24H28V10C28 9.23795 28.2627 8.46752 28.968 8.16147Z" fill="white"/>
</svg>
