<svg width="64" height="64" viewBox="0 0 64 64" fill="none" xmlns="http://www.w3.org/2000/svg">
<path d="M8.02051 28C8.02051 39.0457 16.9749 48 28.0205 48C32.4609 48 36.5635 46.5528 39.8821 44.1044L50.8784 55.1008C52.05 56.2724 53.9495 56.2724 55.1211 55.1008C56.2927 53.9292 56.2927 52.0297 55.1211 50.8582L44.1248 39.8619C46.5732 36.5433 48.0205 32.4406 48.0205 28C48.0205 16.9543 39.0662 8 28.0205 8C16.9749 8 8.02051 16.9543 8.02051 28ZM14.0205 28C14.0205 20.268 20.2886 14 28.0205 14C35.7524 14 42.0205 20.268 42.0205 28C42.0205 35.732 35.7524 42 28.0205 42C20.2886 42 14.0205 35.732 14.0205 28Z" fill="white"/>
</svg>
