<svg width="64" height="64" viewBox="0 0 64 64" fill="none" xmlns="http://www.w3.org/2000/svg">
<path d="M44.5136 8.1359V11.4363H47.814C48.2017 11.4363 48.3958 11.905 48.1217 12.179L42.4129 17.8879C42.0865 18.2142 41.6439 18.3976 41.1823 18.3976H39.2927L31.1537 26.5366C31.3513 26.9736 31.4613 27.4586 31.4613 27.9693C31.4613 29.8916 29.9029 31.45 27.9806 31.45C26.0583 31.45 24.5 29.8916 24.5 27.9693C24.5 26.047 26.0583 24.4887 27.9806 24.4887C28.4914 24.4887 28.9764 24.5987 29.4133 24.7963L37.5524 16.6573V14.7677C37.5524 14.3061 37.7357 13.8634 38.0621 13.5371L43.7709 7.82826C44.045 7.55417 44.5136 7.74829 44.5136 8.1359Z" fill="white"/>
<path d="M28.0205 8C31.3108 8.00002 34.4156 8.79445 37.1533 10.2021L35.9404 11.416C35.0518 12.3048 34.5529 13.5108 34.5527 14.7676V15.4141L34.4209 15.5449C32.5027 14.5572 30.3266 14 28.0205 14C20.2886 14 14.0205 20.268 14.0205 28C14.0205 35.732 20.2886 42 28.0205 42C35.7524 41.9999 42.0205 35.7319 42.0205 28C42.0205 25.6564 41.4438 23.4477 40.4258 21.5068L40.5361 21.3975H41.1826C42.4395 21.3974 43.6453 20.8985 44.5342 20.0098L45.7686 18.7744C47.2064 21.5349 48.0205 24.6722 48.0205 28C48.0205 32.4406 46.5735 36.5436 44.125 39.8623L55.1211 50.8584C56.2925 52.0299 56.2925 53.9291 55.1211 55.1006C53.9495 56.2721 52.0506 56.272 50.8789 55.1006L39.8818 44.1045C36.5633 46.5528 32.4608 48 28.0205 48C16.9749 48 8.02051 39.0457 8.02051 28C8.02051 16.9543 16.9749 8 28.0205 8Z" fill="white"/>
<path d="M28 18C29.1859 18 30.3234 18.207 31.3789 18.5859L28.9053 21.0596C28.6089 21.0213 28.3068 21 28 21C24.134 21 21 24.134 21 28C21 31.866 24.134 35 28 35C31.866 35 35 31.866 35 28C35 27.6617 34.9741 27.3294 34.9277 27.0039L37.3867 24.5449C37.7832 25.6218 38 26.7855 38 28C38 33.5228 33.5228 38 28 38C22.4772 38 18 33.5228 18 28C18 22.4772 22.4772 18 28 18Z" fill="white"/>
</svg>
