<svg width="64" height="64" viewBox="0 0 64 64" fill="none" xmlns="http://www.w3.org/2000/svg">
<path d="M39.8252 43.5063C39.3512 45.6756 38.7506 47.6385 38.0505 49.3328C37.15 51.512 36.1162 53.176 35.0447 54.2729C33.9802 55.3625 32.9534 56 32 56C31.0466 56 30.0198 55.3625 28.9553 54.2729C27.8838 53.176 26.85 51.512 25.9495 49.3328C25.2494 47.6385 24.6481 45.6757 24.1741 43.5063C26.6556 43.8278 29.2846 44 32 44C34.7151 44 37.3438 43.8278 39.8252 43.5063Z" fill="white"/>
<path d="M8.83862 38.3054C10.1186 39.2492 11.6638 40.0833 13.395 40.7986C15.6047 41.7116 18.1762 42.4564 21.0012 42.998C21.5429 45.8234 22.2883 48.3951 23.2014 50.605C23.9167 52.3362 24.7508 53.8814 25.6946 55.1614C17.5087 52.9379 11.062 46.4918 8.83862 38.3054Z" fill="white"/>
<path d="M55.1606 38.3054C52.9372 46.4919 46.4907 52.938 38.3047 55.1614C39.2485 53.8814 40.0832 52.3363 40.7986 50.605C41.7117 48.3951 42.4563 45.8234 42.998 42.998C45.8234 42.4563 48.3951 41.7117 50.605 40.7986C52.336 40.0834 53.8808 39.249 55.1606 38.3054Z" fill="white"/>
<path d="M40.0098 21.3799C40.6402 24.5722 41 28.1731 41 32C41 34.9619 40.7845 37.7885 40.395 40.395C37.7885 40.7845 34.9619 41 32 41C29.0378 41 26.211 40.7846 23.6042 40.395C23.2148 37.7885 23 34.9619 23 32C23 28.1731 23.3591 24.5722 23.9895 21.3799C26.4331 21.747 29.1502 21.9497 32 21.9497C34.8495 21.9497 37.5663 21.7469 40.0098 21.3799Z" fill="white"/>
<path d="M13.2654 16.9993C13.6174 17.4708 14.0591 17.8782 14.5229 18.2209C15.621 19.0322 17.1144 19.6992 18.8245 20.2336C19.5142 20.4492 20.2534 20.6457 21.0349 20.8247C20.3678 24.2371 20 28.0261 20 32C20 34.7151 20.1715 37.3439 20.4929 39.8252C18.324 39.3512 16.3613 38.7505 14.6672 38.0505C12.488 37.15 10.824 36.1162 9.72705 35.0447C8.63747 33.9802 8 32.9534 8 32C8 26.3236 9.97081 21.1079 13.2654 16.9993Z" fill="white"/>
<path d="M50.7339 16.9993C54.0287 21.1079 56 26.3234 56 32C56 32.9534 55.3625 33.9802 54.2729 35.0447C53.176 36.1162 51.512 37.15 49.3328 38.0505C47.6385 38.7506 45.6756 39.3512 43.5063 39.8252C43.8278 37.3438 44 34.7151 44 32C44 28.026 43.6315 24.2372 42.9644 20.8247C43.7461 20.6456 44.4856 20.4493 45.1755 20.2336C46.8856 19.6992 48.379 19.0322 49.4771 18.2209C49.9408 17.8783 50.3819 17.4707 50.7339 16.9993Z" fill="white"/>
<path d="M32 8C32.9534 8 33.9802 8.63747 35.0447 9.72705C36.1162 10.824 37.15 12.488 38.0505 14.6672C38.5232 15.8112 38.9502 17.0777 39.3242 18.4473C37.1143 18.7662 34.6336 18.9497 32 18.9497C29.3662 18.9497 26.8852 18.7663 24.675 18.4473C25.0491 17.0776 25.4768 15.8112 25.9495 14.6672C26.85 12.488 27.8838 10.824 28.9553 9.72705C30.0198 8.63747 31.0466 8 32 8Z" fill="white"/>
<path d="M25.6938 8.83862C24.7502 10.1185 23.9167 11.664 23.2014 13.395C22.6349 14.7662 22.132 16.2763 21.7029 17.9001C20.9956 17.7381 20.3322 17.5621 19.7195 17.3706C18.1724 16.8871 17.0292 16.3422 16.3057 15.8076C15.5531 15.2515 15.5 14.902 15.5 14.8247C15.5001 14.7728 15.5256 14.6012 15.7651 14.3267C18.5489 11.7685 21.9381 9.85879 25.6938 8.83862Z" fill="white"/>
<path d="M38.3054 8.83862C42.0613 9.85869 45.4503 11.7686 48.2341 14.3267C48.4739 14.6014 48.4999 14.7727 48.5 14.8247C48.5 14.902 48.4469 15.2515 47.6943 15.8076C46.9708 16.3422 45.8276 16.8871 44.2805 17.3706C43.6676 17.5621 43.0039 17.7381 42.2964 17.9001C41.8673 16.2764 41.3651 14.7661 40.7986 13.395C40.0833 11.6638 39.2492 10.1186 38.3054 8.83862Z" fill="white"/>
</svg>
